<svg xmlns="http://www.w3.org/2000/svg" xmlns:xlink="http://www.w3.org/1999/xlink" width="40" zoomAndPan="magnify" viewBox="0 0 30 30.000001" height="40" preserveAspectRatio="xMidYMid meet" version="1.0"><defs><clipPath id="id1"><path d="M 1.101562 0.617188 L 28.679688 0.617188 L 28.679688 28.199219 L 1.101562 28.199219 Z M 1.101562 0.617188 " clip-rule="nonzero"/></clipPath></defs><g clip-path="url(#id1)"><path fill="#6c757d" d="M 28.636719 21.464844 L 27.386719 26.894531 C 27.210938 27.660156 26.535156 28.199219 25.746094 28.199219 C 12.15625 28.199219 1.101562 17.144531 1.101562 3.554688 C 1.101562 2.761719 1.636719 2.085938 2.40625 1.914062 L 7.835938 0.660156 C 8.625 0.476562 9.433594 0.886719 9.761719 1.636719 L 12.269531 7.480469 C 12.5625 8.167969 12.363281 8.972656 11.785156 9.445312 L 8.886719 11.773438 C 10.714844 15.5 13.746094 18.535156 17.476562 20.363281 L 19.851562 17.46875 C 20.320312 16.886719 21.128906 16.683594 21.816406 16.984375 L 27.660156 19.488281 C 28.363281 19.859375 28.820312 20.675781 28.636719 21.464844 Z M 28.636719 21.464844 " fill-opacity="1" fill-rule="nonzero"/></g><path fill="#ff1616" d="M 25.058594 7.371094 L 24.09375 5.695312 L 21.773438 7.035156 L 21.773438 4.355469 L 19.839844 4.355469 L 19.839844 7.035156 L 17.519531 5.695312 L 16.554688 7.371094 L 18.871094 8.710938 L 16.554688 10.050781 L 17.519531 11.722656 L 19.839844 10.382812 L 19.839844 13.066406 L 21.773438 13.066406 L 21.773438 10.382812 L 24.09375 11.722656 L 25.058594 10.050781 L 22.742188 8.710938 Z M 25.058594 7.371094 " fill-opacity="1" fill-rule="nonzero"/></svg>